<mxfile host="app.diagrams.net" modified="2024-07-07T18:28:05.874Z" agent="Mozilla/5.0 (Windows NT 10.0; Win64; x64) AppleWebKit/537.36 (KHTML, like Gecko) Chrome/126.0.0.0 Safari/537.36" etag="0ErAe1jZiceFt1R1AwQ0" version="24.6.4" type="device">
  <diagram name="Page-1" id="hrDhvnOybsvmzDypRD5w">
    <mxGraphModel dx="1434" dy="738" grid="1" gridSize="10" guides="1" tooltips="1" connect="1" arrows="1" fold="1" page="1" pageScale="1" pageWidth="827" pageHeight="1169" math="0" shadow="0">
      <root>
        <mxCell id="0" />
        <mxCell id="1" parent="0" />
        <mxCell id="5zv4RI3l1GxS1fWlR7tb-1" value="" style="rounded=1;whiteSpace=wrap;html=1;" vertex="1" parent="1">
          <mxGeometry x="170" y="120" width="620" height="330" as="geometry" />
        </mxCell>
        <mxCell id="5zv4RI3l1GxS1fWlR7tb-2" value="Utilisateur Interne" style="shape=umlActor;verticalLabelPosition=bottom;verticalAlign=top;html=1;outlineConnect=0;" vertex="1" parent="1">
          <mxGeometry x="50" y="230" width="30" height="60" as="geometry" />
        </mxCell>
        <mxCell id="5zv4RI3l1GxS1fWlR7tb-3" value="Se connecter" style="ellipse;whiteSpace=wrap;html=1;" vertex="1" parent="1">
          <mxGeometry x="210" y="230" width="110" height="60" as="geometry" />
        </mxCell>
        <mxCell id="5zv4RI3l1GxS1fWlR7tb-4" value="Vérification utilisateur" style="ellipse;whiteSpace=wrap;html=1;" vertex="1" parent="1">
          <mxGeometry x="490" y="160" width="110" height="60" as="geometry" />
        </mxCell>
        <mxCell id="5zv4RI3l1GxS1fWlR7tb-5" value="Attribution des droits&amp;nbsp;" style="ellipse;whiteSpace=wrap;html=1;" vertex="1" parent="1">
          <mxGeometry x="510" y="330" width="110" height="60" as="geometry" />
        </mxCell>
        <mxCell id="5zv4RI3l1GxS1fWlR7tb-6" value="Afficher erreur de connexion" style="ellipse;whiteSpace=wrap;html=1;" vertex="1" parent="1">
          <mxGeometry x="360" y="370" width="110" height="60" as="geometry" />
        </mxCell>
        <mxCell id="5zv4RI3l1GxS1fWlR7tb-7" value="&amp;lt;&amp;lt;include&amp;gt;&amp;gt;" style="endArrow=open;endSize=12;dashed=1;html=1;rounded=0;entryX=0.032;entryY=0.713;entryDx=0;entryDy=0;entryPerimeter=0;exitX=1;exitY=0;exitDx=0;exitDy=0;" edge="1" parent="1" source="5zv4RI3l1GxS1fWlR7tb-3" target="5zv4RI3l1GxS1fWlR7tb-4">
          <mxGeometry width="160" relative="1" as="geometry">
            <mxPoint x="290" y="280" as="sourcePoint" />
            <mxPoint x="450" y="280" as="targetPoint" />
          </mxGeometry>
        </mxCell>
        <mxCell id="5zv4RI3l1GxS1fWlR7tb-8" value="&amp;lt;&amp;lt;extend&amp;gt;&amp;gt;" style="endArrow=open;endSize=12;dashed=1;html=1;rounded=0;exitX=-0.006;exitY=0.642;exitDx=0;exitDy=0;exitPerimeter=0;entryX=0.977;entryY=0.681;entryDx=0;entryDy=0;entryPerimeter=0;" edge="1" parent="1" source="5zv4RI3l1GxS1fWlR7tb-5" target="5zv4RI3l1GxS1fWlR7tb-3">
          <mxGeometry width="160" relative="1" as="geometry">
            <mxPoint x="379.99974401478136" y="352.0074742193022" as="sourcePoint" />
            <mxPoint x="310" y="270" as="targetPoint" />
          </mxGeometry>
        </mxCell>
        <mxCell id="5zv4RI3l1GxS1fWlR7tb-9" value="&amp;lt;&amp;lt;extend&amp;gt;&amp;gt;" style="endArrow=open;endSize=12;dashed=1;html=1;rounded=0;entryX=1;entryY=1;entryDx=0;entryDy=0;exitX=0.007;exitY=0.428;exitDx=0;exitDy=0;exitPerimeter=0;" edge="1" parent="1" source="5zv4RI3l1GxS1fWlR7tb-6" target="5zv4RI3l1GxS1fWlR7tb-3">
          <mxGeometry width="160" relative="1" as="geometry">
            <mxPoint x="473" y="389" as="sourcePoint" />
            <mxPoint x="314" y="420" as="targetPoint" />
          </mxGeometry>
        </mxCell>
        <mxCell id="5zv4RI3l1GxS1fWlR7tb-10" value="" style="endArrow=none;html=1;rounded=0;exitX=0.5;exitY=0.5;exitDx=0;exitDy=0;exitPerimeter=0;entryX=0;entryY=0.5;entryDx=0;entryDy=0;" edge="1" parent="1" source="5zv4RI3l1GxS1fWlR7tb-2" target="5zv4RI3l1GxS1fWlR7tb-3">
          <mxGeometry width="50" height="50" relative="1" as="geometry">
            <mxPoint x="320" y="410" as="sourcePoint" />
            <mxPoint x="370" y="360" as="targetPoint" />
          </mxGeometry>
        </mxCell>
        <mxCell id="5zv4RI3l1GxS1fWlR7tb-11" value="&lt;b&gt;Gestion des risques&lt;/b&gt;" style="text;html=1;align=center;verticalAlign=middle;whiteSpace=wrap;rounded=0;" vertex="1" parent="1">
          <mxGeometry x="340" y="120" width="130" height="30" as="geometry" />
        </mxCell>
        <mxCell id="5zv4RI3l1GxS1fWlR7tb-12" value="Création de l&#39;utilisateur" style="ellipse;whiteSpace=wrap;html=1;" vertex="1" parent="1">
          <mxGeometry x="540" y="250" width="110" height="60" as="geometry" />
        </mxCell>
        <mxCell id="5zv4RI3l1GxS1fWlR7tb-13" value="&amp;lt;&amp;lt;extend&amp;gt;&amp;gt;" style="endArrow=open;endSize=12;dashed=1;html=1;rounded=0;exitX=-0.006;exitY=0.642;exitDx=0;exitDy=0;exitPerimeter=0;" edge="1" parent="1" source="5zv4RI3l1GxS1fWlR7tb-12">
          <mxGeometry width="160" relative="1" as="geometry">
            <mxPoint x="379.99974401478136" y="282.0074742193022" as="sourcePoint" />
            <mxPoint x="320" y="253" as="targetPoint" />
          </mxGeometry>
        </mxCell>
      </root>
    </mxGraphModel>
  </diagram>
</mxfile>
